<?xml version="1.0" encoding="utf-8"?>
<!-- Generator: Adobe Illustrator 16.0.4, SVG Export Plug-In . SVG Version: 6.00 Build 0)  -->
<!DOCTYPE svg PUBLIC "-//W3C//DTD SVG 1.1//EN" "http://www.w3.org/Graphics/SVG/1.1/DTD/svg11.dtd">
<svg version="1.1" id="Capa_1" xmlns="http://www.w3.org/2000/svg" xmlns:xlink="http://www.w3.org/1999/xlink" x="0px" y="0px"
	 width="512px" height="512px" viewBox="0 0 512 512" enable-background="new 0 0 512 512" xml:space="preserve">
<path d="M64,192h173.904C226.676,151.545,221,141.704,221,99c0-36.944,30.056-67,67-67c36.943,0,67,30.056,67,67
	c0,51.986,19.361,75.975,57.545,102.855c1.134,0.798,2.289,1.581,3.455,2.355V160h96v320h-96v-28.502
	c-31.831,2.151-40.56,11.096-51.223,22.042c-8.227,8.445-18.464,18.956-37.016,26.638C308.285,508.243,282.939,512,248,512h-24
	h-8.49c-30.969,0-56.163-25.634-56.163-57.143c0-5.235,0.712-10.438,2.095-15.45c-9.855-10.498-15.482-24.501-15.482-39.407
	c0-5.234,0.712-10.438,2.095-15.449c-9.855-10.499-15.482-24.503-15.482-39.408c0-9.018,2.071-17.55,5.744-25.143H64
	c-35.347,0-64-28.652-64-64C0,220.654,28.653,192,64,192z M464,448c8.836,0,16-7.163,16-16s-7.164-16-16-16s-16,7.163-16,16
	S455.164,448,464,448z M67,288h124.734H195v32h-3.266c-13.323,0-24.163,11.279-24.163,25.143c0,8.686,4.234,16.646,11.327,21.293
	l12.394,8.123l-7.149,12.979c-2.083,3.781-3.184,8.091-3.184,12.463c0,8.685,4.234,16.645,11.326,21.291l12.395,8.122l-7.149,12.979
	c-2.083,3.781-3.184,8.092-3.184,12.465c0,13.862,10.84,25.143,24.163,25.143H227h24c63.281,0,76.044-19.103,89.556-32.975
	c13.794-14.16,29.245-29.992,75.444-33.364V246.474c-7.878-4.132-15.35-8.632-22.329-13.545C345.475,199,320,163.156,320,99
	c0-15.991-15.01-29-31-29s-30,13.009-30,29c0,42.83,6.207,52.706,18.48,93c3.062,11.371,5.961,22.635,7.938,31.667L67,224
	c-17.645,0-32,14.355-32,32C35,273.645,49.355,288,67,288z"/>
</svg>
